<?xml version="1.0" encoding="UTF-8" standalone="no"?>
<!-- Created with Inkscape (http://www.inkscape.org/) -->

<svg
   width="370"
   height="370"
   viewBox="0 0 97.895831 97.895833"
   version="1.1"
   id="svg1"
   xml:space="preserve"
   inkscape:version="1.3 (0e150ed6c4, 2023-07-21)"
   sodipodi:docname="vector_drawing.svg"
   xmlns:inkscape="http://www.inkscape.org/namespaces/inkscape"
   xmlns:sodipodi="http://sodipodi.sourceforge.net/DTD/sodipodi-0.dtd"
   xmlns="http://www.w3.org/2000/svg"
   xmlns:svg="http://www.w3.org/2000/svg"><sodipodi:namedview
     id="namedview1"
     pagecolor="#ffffff"
     bordercolor="#000000"
     borderopacity="0.25"
     inkscape:showpageshadow="2"
     inkscape:pageopacity="0.0"
     inkscape:pagecheckerboard="0"
     inkscape:deskcolor="#d1d1d1"
     inkscape:document-units="mm"
     inkscape:zoom="1.4142136"
     inkscape:cx="41.719299"
     inkscape:cy="167.93786"
     inkscape:window-width="1100"
     inkscape:window-height="973"
     inkscape:window-x="33"
     inkscape:window-y="67"
     inkscape:window-maximized="0"
     inkscape:current-layer="g43" /><defs
     id="defs1"><clipPath
       clipPathUnits="userSpaceOnUse"
       id="clipPath46"><path
         id="path47"
         style="fill:#ff0000;fill-opacity:1;fill-rule:nonzero;stroke:none;stroke-width:0.264583"
         d="M 19.732908,4.8144439 V 84.75065 c 0.01741,-0.0066 0.03546,-0.01371 0.05271,-0.02016 0.349371,-0.130792 0.702985,-0.250434 1.068669,-0.327113 0.02003,-0.0042 0.03938,-0.007 0.05736,-0.0083 0.19371,-0.014 0.263453,0.129802 0.178284,0.236162 0.01696,0.06026 -0.0074,0.139181 -0.09302,0.209807 0.0023,0.02635 0.01906,0.03931 0.01344,0.07183 -0.01141,0.06598 0.0016,0.124423 0.0248,0.188103 0.07862,0.194992 0.173892,0.379203 0.272852,0.564824 0.224778,0.421606 0.127436,0.226341 0.375171,0.696079 0.08337,0.158076 0.164663,0.317336 0.247013,0.475941 0.27523,0.581821 0.56168,1.165338 0.684713,1.803508 0.07113,0.368954 0.102112,0.788649 -0.01602,1.155486 -0.05194,0.161279 -0.161582,0.29754 -0.242362,0.446484 -0.336075,0.247867 -0.384141,0.345972 -0.816488,0.409792 -0.35203,0.05197 -0.69779,-0.02143 -1.036112,-0.106968 -0.319981,-0.0809 -0.531979,-0.154789 -0.771013,-0.244946 v 7.625889 H 92.09955 V 4.8144439 Z m 0.222209,80.2085411 c -0.01938,0.0072 -0.03957,0.01185 -0.05891,0.01913 -0.05371,0.02016 -0.108575,0.04138 -0.163298,0.06253 v 0.09199 c 0.02629,-0.02133 0.05249,-0.04268 0.07906,-0.06356 0.03361,-0.0264 0.08589,-0.06645 0.143144,-0.110069 z m 0.748275,0.02479 c -0.05915,0.0419 -0.118235,0.08395 -0.17725,0.12609 -2.32e-4,2.64e-4 -2.91e-4,7.93e-4 -5.29e-4,0.0011 -0.0157,0.02061 -0.03092,0.04125 -0.04186,0.0646 -0.02462,0.05253 0.02706,0.0283 0.03772,0.03721 0.0498,0.0418 0.07976,0.156059 0.09767,0.216008 0.09374,0.313698 -0.246683,0.407202 -0.318843,0.08785 -0.0075,-0.03307 -0.0093,-0.04977 -0.02635,-0.08165 -0.01808,-0.03378 -0.04513,-0.06296 -0.05891,-0.0987 -6.88e-4,-0.0019 -0.0014,-0.0034 -0.0021,-0.0052 -0.09371,0.06505 -0.187996,0.129704 -0.283703,0.19172 -0.06509,0.04217 -0.128045,0.08971 -0.196371,0.126089 v 4.2354 c 0.287196,0.10972 0.50476,0.190344 0.866097,0.28112 0.307881,0.07734 0.618292,0.146264 0.937928,0.09302 0.329083,-0.05482 0.374951,-0.142952 0.61805,-0.341064 0.04948,-0.110995 0.118741,-0.214924 0.148311,-0.332795 0.07919,-0.315614 0.04765,-0.65763 -0.01705,-0.970484 -0.124213,-0.600591 -0.394208,-1.149292 -0.65474,-1.698604 -0.279997,-0.594799 -0.653485,-1.144611 -0.902788,-1.753899 -0.02469,-0.06339 -0.01876,-0.121161 -0.02532,-0.177766 z" /></clipPath></defs><g
     inkscape:groupmode="layer"
     id="layer7"
     inkscape:label="background"
     style="display:inline;fill:#b3b3b3"
     sodipodi:insensitive="true"><rect
       style="display:inline;fill:#e3e2db;stroke-width:0.464278"
       id="rect3"
       width="97.853279"
       height="97.901054"
       x="0"
       y="0.047779921"
       sodipodi:insensitive="true" /><path
       style="display:inline;fill:#b3b3b3;stroke-width:0.264458"
       d="m -0.18708465,54.255712 7.10263365,-1.496708 2.6167617,1.309618 3.3644063,0.18709 c 0,0 3.551319,0.561266 4.672788,1.122532 1.121469,0.561266 5.04661,2.432153 5.04661,2.432153 l 5.420434,1.122532 54.391244,-2.80633 3.73823,-0.187089 5.233522,2.806329 6.541902,1.309622 0.560735,4.30304 -18.504239,-1.496711 -54.765066,1.309621 -12.33616,0.18709 -12.89688881557,-0.561266 z"
       id="path17"
       sodipodi:insensitive="true" /><path
       style="fill:#cccccc;stroke-width:0.26272"
       d="M -0.15401043,61.544232 20.05389,62.282004 26.78986,62.835333 97.330419,61.175348 98.26597,60.990904 98.07886,97.879469 0.22020672,97.510584 Z"
       id="path16"
       sodipodi:insensitive="true" /><ellipse
       style="fill:#ffffff;stroke-width:0.264583"
       id="path41"
       cx="11.599497"
       cy="4.864305"
       rx="6.9222808"
       ry="6.1739254"
       sodipodi:insensitive="true" /></g><g
     id="g3"
     inkscape:label="outline"
     transform="translate(0.01213962,0.08809926)"
     style="fill:#b3b3b3"
     clip-path="url(#clipPath46)"
     sodipodi:insensitive="true"><path
       id="path1"
       style="fill:#b3b3b3;stroke-width:0.264932"
       d="m 52.976874,4.8144439 -0.86403,0.050643 -1.586983,0.6557739 -3.731039,2.1487061 c 0,0 -2.03289,1.6551547 -2.100647,1.705839 -0.06775,0.050678 -1.981791,3.6488731 -1.981791,3.6488731 l 0.06821,2.094962 -0.220141,0.08423 -0.779281,0.506946 -0.558622,0.709517 -0.08527,1.064018 0.4408,1.064534 -0.491443,0.82734 -0.287838,1.267106 0.47439,0.574125 1.32705,0.648023 0.04186,0.519865 0.186036,0.137976 0.377237,0.100769 0.215491,1.1467 0.5271,0.907955 1.029911,0.429948 0.646472,-0.167432 -0.04806,0.74104 0.797884,2.38125 0.301791,0.795817 0.125573,1.705322 -0.171049,0.134359 -6.152596,3.453019 c 0.774129,0.715365 0.509217,2.134467 -1.343587,2.815849 -0.02367,0.0087 -0.04712,0.01714 -0.0708,0.02584 -0.251971,0.09875 -0.503293,0.201827 -0.743107,0.327629 -0.463362,0.238256 -0.91895,0.491102 -1.380794,0.732255 -0.537426,0.282975 -1.079315,0.557999 -1.605587,0.861446 -0.403965,0.234048 -0.807873,0.469887 -1.184424,0.746724 -0.243238,0.177949 -0.446493,0.398521 -0.647505,0.621668 -0.249128,0.26771 -0.496077,0.537162 -0.748275,0.802018 -0.317943,0.33743 -0.635219,0.67554 -0.948262,1.017509 -0.529322,0.58124 -1.055029,1.166123 -1.555461,1.772502 -0.188884,0.23194 -0.314926,0.381626 -0.492477,0.614949 -0.244005,0.32065 -0.470343,0.654229 -0.712618,0.976168 -0.329248,0.454688 -0.660839,0.907664 -0.989603,1.362708 -0.127652,0.171464 -0.263346,0.357294 -0.397909,0.522448 -0.171227,0.21016 -0.361922,0.402937 -0.54932,0.598413 -0.22977,0.249441 -0.456378,0.501588 -0.680579,0.756027 -0.236657,0.27071 -0.48004,0.535969 -0.700732,0.820105 -0.02893,0.03618 -0.05821,0.07243 -0.08733,0.10852 0.01083,0.0086 0.02232,0.01608 0.03307,0.02481 0.223087,0.180564 0.436722,0.372392 0.642338,0.572575 0.254042,0.250895 0.502045,0.507856 0.747758,0.766878 0.254895,0.265778 0.504854,0.53565 0.747241,0.81287 0.283902,0.308376 0.559587,0.625348 0.77773,0.984953 0.04501,0.07559 0.09179,0.15017 0.134876,0.22686 0.26927,0.479303 0.472936,0.993783 0.659391,1.509468 0.04547,0.142097 0.09401,0.283299 0.136426,0.426331 0.173458,0.584912 0.303201,1.183739 0.395324,1.786454 0.200777,1.31361 -0.220302,2.127063 -0.822172,2.403471 -0.02511,0.102092 -0.04633,0.205156 -0.07286,0.306958 -0.06399,0.257425 0.01313,-0.05745 -0.04083,0.180351 -0.0026,0.01146 -0.0062,0.04477 -0.0098,0.03359 -0.0054,-0.01678 -0.0079,-0.03419 -0.01034,-0.05168 0.0036,0.02238 0.0076,0.05254 0.0062,0.04031 0.05985,0.27574 0.179089,0.535469 0.239779,0.81132 0.05189,0.212761 0.06785,0.265968 0.109554,0.486792 0.0605,0.320357 0.09731,0.64429 0.134876,0.9679 0.02782,0.241885 0.04326,0.487234 0.09405,0.725537 0.08392,0.254918 0.204055,0.495617 0.291455,0.749308 0.745882,2.165059 -0.514336,3.250927 -1.748214,2.596224 -0.0076,0.04099 -0.01302,0.08236 -0.02222,0.12299 -0.06683,0.289903 -0.151828,0.57472 -0.261482,0.851628 -0.04076,0.103174 -0.08981,0.202681 -0.132809,0.304891 1.107919,1.011228 1.667496,2.970328 0.939994,5.750553 -0.21303,0.814121 -0.34234,1.641786 -0.473356,2.471684 -0.120744,0.893351 -0.287394,1.780328 -0.374654,2.677873 -0.07179,0.936508 -0.05963,1.880999 -0.01809,2.818949 0.0853,1.275253 0.377756,2.523227 0.623735,3.77393 0.285173,1.385024 0.669037,2.747467 1.100708,4.09329 0.06685,0.209459 0.14294,0.415588 0.213424,0.623735 1.07981,0.125897 2.154517,0.317398 3.228226,0.59893 4.044144,1.038745 8.058498,2.200816 12.144995,3.068546 4.975657,1.014858 9.987317,1.916473 15.064197,2.232939 2.09254,0.09588 2.626387,0.160166 4.682402,0.104386 0.676595,-0.01836 1.35303,-0.04979 2.027266,-0.109037 2.059171,-0.180964 4.080417,-0.624278 6.094719,-1.068152 1.72707,-0.406901 3.461511,-0.821983 5.205883,-1.171505 -0.03236,-0.397507 -0.06528,-0.794859 -0.09405,-1.192692 -0.0099,-0.137756 -0.05778,-0.280724 -0.02119,-0.413928 0.01925,-0.07009 0.05263,0.135368 0.07906,0.203088 0.19754,0.505998 0.394903,0.92036 0.591695,1.28571 0.09048,-0.0172 0.181269,-0.03392 0.271818,-0.05064 0.333103,-0.662505 0.661716,-1.32725 0.996838,-1.989026 0.500054,-1.072567 0.928689,-2.193838 1.057817,-3.377055 -0.715058,-0.882368 -1.38501,-1.799568 -1.973006,-2.776574 -0.217107,-0.387593 -0.446327,-0.768789 -0.65164,-1.16272 -1.083708,-2.079245 -1.811405,-4.32264 -2.27583,-6.615617 -0.245654,-1.481386 -0.300993,-1.63696 -0.431498,-3.13986 -0.189149,-2.178206 -0.156571,-4.36594 -0.253215,-6.548437 -0.06399,-1.314906 -0.08415,-1.847078 -0.170015,-3.142961 -0.121009,-1.826309 -0.291616,-3.652531 -0.221692,-5.485453 0.03403,-1.582176 0.04227,-3.167718 0.164848,-4.745964 0.0981,-0.881992 0.213427,-1.761941 0.294039,-2.645833 0.03672,-0.30716 0.09101,-0.541202 0.06925,-0.804086 -0.03259,-0.630204 -0.08369,-1.258805 -0.134875,-1.88774 -0.08389,-1.2192 -0.134787,-2.451592 0.09302,-3.660241 0.175708,-0.935694 0.396787,-1.860541 0.670243,-2.772958 0.13261,-0.481966 0.261829,-0.966568 0.415996,-1.442289 0.0015,-0.0045 0.0041,0.0086 0.0062,0.01292 -0.0062,0.04046 -0.01187,0.08098 -0.01809,0.12144 0.02625,-0.116276 0.04634,-0.234008 0.06976,-0.350883 0.197574,-0.986077 0.415356,-1.690246 0.646989,-2.217953 -0.946345,-0.365037 -1.887989,-0.741751 -2.818949,-1.145149 -0.994358,-0.420982 -1.988981,-0.84182 -2.967778,-1.298112 -0.414861,-0.1934 -1.137925,-0.541861 -1.559594,-0.774113 -0.182777,-0.100673 -0.35868,-0.213642 -0.537952,-0.320394 -0.09476,-0.05643 -0.169711,-0.115777 -0.252181,-0.17415 -0.234646,0.789266 -1.307286,1.211208 -2.668054,0.37052 -0.349199,-0.215737 -0.693954,-0.436557 -1.025777,-0.678511 -0.06512,-0.04616 -0.443236,-0.31495 -0.522966,-0.36897 -0.344315,-0.233297 -0.70238,-0.447519 -1.031461,-0.702799 -0.379385,-0.29522 -0.754629,-0.596169 -1.096058,-0.935344 -0.08929,-0.09028 -0.177176,-0.182262 -0.2651,-0.273885 l -0.04393,0.0217 -4.079854,-1.469161 0.06718,-1.665015 0.464571,-1.228865 0.905372,-2.917651 0.83044,-0.03359 0.609782,-0.506946 0.347265,-0.802535 0.346749,-1.275374 0.846977,0.135392 c 0,0 0.838429,-0.363285 0.872298,-0.363285 0.03388,0 0.321665,-0.988439 0.355534,-0.996839 0.03388,-0.0084 0.211873,-0.565857 0.211873,-0.565857 l -0.04237,-0.76016 -0.203089,-0.523482 0.330213,-0.574642 -0.110071,-0.278536 -0.0083,-0.515214 -0.177767,-0.194304 0.296106,-0.574641 0.389123,-0.346233 0.330729,-0.455786 0.144178,-0.667659 -0.305408,-0.658875 -0.507463,-0.624768 -0.601513,-0.211356 -0.728121,0.118339 H 62.851207 L 62.562852,13.970474 62.123086,12.652725 60.818773,10.186209 59.412657,8.0240671 58.108861,6.9088897 56.85519,6.0980864 55.584984,5.6252471 54.822756,5.6423003 54.382473,5.794229 54.230028,5.9461577 54.026939,5.8784616 53.959243,5.4562652 53.535496,4.9834258 Z M 24.745006,48.985908 c 0.01417,0.01224 0.03024,0.02201 0.04496,0.03359 -0.0042,-0.0041 -0.0082,-0.0084 -0.0124,-0.0124 -0.0094,-0.009 -0.04238,-0.02969 -0.03256,-0.02119 z" /><path
       style="fill:#b3b3b3;stroke-width:0.264583"
       d="m 64.226249,18.565136 0.74328,0.827745 0.03379,1.283849 -0.692605,0.945994 -0.760172,0.202714 0.439211,-1.030459 0.354748,-0.08446 0.168926,-0.878423 -0.320961,-0.540568 -0.253391,-0.05068 -0.30407,-0.48989 z"
       id="path2" /><path
       style="fill:#b3b3b3;stroke-width:0.264583"
       d="m 61.726121,22.585611 1.23317,2.854876 0.253392,0.456104 -0.709496,-1.081136 0.472998,1.435884 -1.266957,-2.787304 -0.168926,-0.219606 z"
       id="path3" /></g><g
     inkscape:groupmode="layer"
     id="layer8"
     inkscape:label="blouse"
     style="fill:#ffffff"
     transform="matrix(0.99152204,0,0,1.0186177,0.6684459,-0.58203793)"
     sodipodi:insensitive="true"><g
       id="g19"
       sodipodi:insensitive="true"><g
         id="g16"
         transform="matrix(1,0,0,1.0438657,103.98125,-0.68088579)"
         style="fill:#ffffff"><g
           id="g5"
           style="fill:#ffffff"
           transform="matrix(1.0008668,0,0,1.0008668,-104.00072,-0.60986213)"><path
             style="opacity:1;fill:#ffffff;stroke-width:0.264583"
             d="m 27.879585,56.284748 -0.26279,-2.580116 -1.958977,-1.170606 -1.337838,-0.860039 0.02389,-0.382241 -0.21501,-0.16723 -0.31057,0.143341 -0.143339,-0.33446 0.525579,-1.457288 0.883928,-1.409507 0.645924,-0.645924 0.833472,-0.509501 0.219607,-0.920654 0.793959,-1.013566 0.30407,-0.60814 0.760174,-1.216279 1.140262,-1.410544 0.109802,-0.515228 0.228052,-0.371642 0.574352,-0.827743 0.625033,-0.489892 0.675709,-0.853083 0.734835,-0.396981 0.777068,-0.557461 0.717942,-0.46455 0.422317,-0.30407 0.371642,-0.701048 0.532122,-0.177374 0.109802,0.202713 -0.0084,0.126696 1.081135,-0.371642 0.920655,-0.388532 0.625033,-0.481444 0.557461,-0.439211 0.701048,-0.481444 0.532122,-0.05068 1.089583,0.498335 0.625033,0.01691 0.363194,0.194268 0.489889,0.135141 0.937549,0.270285 1.098028,0.599692 0.810853,0.447659 0.793959,0.532122 2.652162,0.869976 0.396978,-0.177374 0.456105,-0.06757 1.131816,-0.405426 1.984899,-0.962887 3.35321,-1.925773 0.878425,-0.540567 0.945993,-0.380088 1.334527,-0.456104 0.472998,-0.168929 0.65037,-0.202713 0.827746,-0.109802 1.283848,-0.278731 0.810853,-0.540567 0.802405,-0.320964 0.557461,-0.04223 1.182494,0.962885 0.582801,0.54057 1.064241,0.430763 0.228052,0.472999 0.929103,-0.08446 1.511901,0.27873 1.241618,0.869977 0.777065,0.413871 0.168929,-0.126695 0.396978,0.02535 0.346302,0.168928 0.684157,0.07602 c 0,0 0.532122,0.16048 0.565907,0.194265 0.03378,0.03379 0.396981,0.5828 0.396981,0.5828 0,0 0.481444,0.211159 0.549013,0.228052 0.06757,0.01691 0.557461,0.388533 0.557461,0.388533 l 0.912209,0.219607 0.320961,0.135141 0.152035,0.160483 0.177374,-0.07602 0.439214,0.09291 0.135141,0.101357 0.270285,-0.03379 0.18582,0.194268 0.08446,0.287176 0.118251,0.413872 -0.05913,0.430765 -0.219604,0.152035 0.06757,0.270283 0.05912,0.447659 -0.287176,0.625033 -0.312518,0.363193 -0.253392,0.101357 0.07602,0.777065 -0.143587,0.168929 -0.329409,-0.472998 -0.354748,-0.135142 H 76.52418 l -0.777068,0.270285 -0.46455,0.270283 -0.945994,0.07602 -1.317636,0.320964 -0.599691,-0.0084 -2.128488,0.464551 -1.53724,0.346299 -1.714617,0.701051 -3.767081,1.435883 -2.060917,0.954442 -3.116715,1.503455 -1.224724,0.667264 -2.449449,1.571024 -2.221397,1.300742 -1.959559,1.182494 -0.420706,0.242896 -2.671504,0.900752 -4.013514,1.600629 -0.935226,0.389329 -1.064244,0.202713 -3.226517,-0.05068 -2.364983,0.270282 -4.34144,0.489892 -3.040694,0.337855 z"
             id="path4"
             sodipodi:insensitive="true" /><path
             style="fill:#ffffff;stroke-width:0.264583"
             d="m 23.854126,51.243968 0.250845,0.03583 0.203064,-0.107506 -0.441964,-0.14334 z"
             id="path5"
             sodipodi:insensitive="true" /></g><g
           id="g15"
           style="fill:#ffffff"><path
             style="fill:#ffffff;stroke-width:0.264583"
             d="m -64.177393,33.646025 0.179173,-0.110493 0.328488,0.140354 0.453909,0.25383 z"
             id="path6" /><path
             style="fill:#ffffff;stroke-width:0.264583"
             d="m -63.848299,33.600017 0.165364,0.06408 v 0.01035 z"
             id="path7" /><path
             style="fill:#ffffff;stroke-width:0.264583"
             d="m -65.483462,34.430425 -0.771874,0.461586 -0.455266,0.274065 -0.262807,0.154538 -0.138653,0.08449 1.178726,-0.266507 z"
             id="path8"
             sodipodi:nodetypes="ccccccc" /><path
             style="fill:#ffffff;stroke-width:0.264583"
             d="m -68.624235,35.573022 0.08475,-0.09715 0.452685,0.07235 0.751375,-0.110588 0.225309,-0.03204 0.02376,-0.01035 -0.01344,0.03411 -0.568441,0.320394 -0.383437,0.05581 -0.417547,0.08372 z"
             id="path9"
             sodipodi:nodetypes="ccccccccccc" /><path
             style="fill:#ffffff;stroke-width:0.264583"
             d="m -69.988702,36.850621 -0.508646,0.292324 -0.251401,0.152012 -0.432641,0.339097 -0.239708,0.181242 1.525942,-0.859437 z"
             id="path10"
             sodipodi:nodetypes="ccccccc" /><path
             style="fill:#ffffff;stroke-width:0.264583"
             d="m -72.548016,38.826744 -0.190011,0.179782 -0.09062,0.08478 -0.03946,0.038 0.309864,-0.233863 z"
             id="path11" /><path
             style="fill:#ffffff;stroke-width:0.264583"
             d="m -73.416223,39.646721 -0.06431,0.06285 -0.08331,0.07893 -0.08624,0.08039 -0.05554,0.102315 -0.09647,0.198781 -0.05554,0.114006 0.521801,-0.59196 z"
             id="path12"
             sodipodi:nodetypes="ccccccccc" /><path
             style="fill:#ffffff;stroke-width:0.264583"
             d="m -74.715851,41.816567 -0.442351,0.413413 -0.09508,0.08268 -0.05788,0.02066 -0.04546,0.02479 -0.359667,0.690396 -0.318328,0.640789 -0.0041,0.02479 1.508951,-1.80661 z"
             id="path13"
             sodipodi:nodetypes="cccccccccc" /><path
             style="fill:#ffffff;stroke-width:0.264583"
             d="m -77.328611,45.975486 -0.148828,0.438217 0.173633,-0.107487 z"
             id="path14"
             sodipodi:nodetypes="cccc" /><path
             style="fill:#ffffff;stroke-width:0.264583"
             d="m -38.025585,31.501953 0.611848,0.28112 0.802019,0.520898 0.355534,0.23151 0.181901,0.380339 0.388606,0.07441 3.580144,1.223698 0.537434,0.264583 -0.09095,0.09095 -9.880534,-3.009636 -0.03307,-0.07441 1.058334,-0.504362 0.165364,-0.09095 0.124024,-0.02479 z"
             id="path15" /></g></g><path
         style="fill:#ffffff;stroke-width:0.263273"
         d="m 77.843783,40.955657 0.188689,1.561189 -2.217089,-0.826511 -0.518892,-0.573967 c 0,0 2.358603,-0.321421 2.547292,-0.160711 z"
         id="path71" /><path
         style="fill:#ffffff;stroke-width:0.263273"
         d="m 78.480605,37.672572 2.547292,2.112193 0.849098,1.744859 -0.471722,0.367337 -4.811552,-0.367337 0.377376,-2.57137 z"
         id="path18" /><path
         style="fill:#ffffff;stroke-width:0.259428"
         d="m 81.748541,41.432917 1.305421,1.354158 0.111438,0.148627 -0.04776,0.412852 -2.403885,-1.552326 z"
         id="path19" /></g></g><g
     inkscape:groupmode="layer"
     id="layer9"
     inkscape:label="jacket"
     transform="matrix(1.0026395,0,0,1,-0.05408405,0)"
     style="fill:#333333"
     sodipodi:insensitive="true"><path
       style="fill:#333333;stroke-width:0.273563"
       d="m 20.89148,101.74439 -0.03298,-0.70898 -0.428816,-0.56719 -0.626732,-0.744437 0.06597,-2.091512 0.197915,-2.729598 -0.09896,-3.970326 0.296872,-1.59522 0.06597,-3.261338 0.692703,-3.970325 0.923604,-1.914263 1.715264,-2.906846 v -0.460841 l -0.593745,-1.205277 0.06597,-0.602639 0.296873,-0.744436 0.461802,-1.240726 -0.329859,-1.240727 0.527774,-0.921683 1.022561,-1.02803 0.197915,-1.417973 0.758675,-0.921683 -0.09896,-0.744436 0.263887,-1.772466 0.758675,-2.056061 0.527773,-1.914264 0.461802,-1.666119 -0.197915,-1.914263 0.626731,-0.60264 3.958302,-0.283594 3.166642,-0.283596 2.93574,-0.354493 2.276024,-0.106349 0.824646,0.283595 8.543336,-3.722179 1.319434,-0.779887 7.487787,-4.750209 3.892331,-1.807916 3.463514,-1.630669 2.177066,-0.886234 2.374981,-0.673537 1.649293,-0.389943 1.715264,-0.248145 1.715264,-0.389943 0.857632,-0.389942 0.791661,0.248145 0.428816,0.425392 0.197915,0.212697 1.055547,-0.0709 0.494788,0.283595 0.626731,0.283595 0.560759,0.141797 1.022562,0.248145 0.725688,0.673537 0.296873,0.389943 -0.03299,0.354493 -0.461802,0.319045 -0.329858,0.177245 -0.39583,0.248147 -0.230901,0.212695 0.824646,1.878815 0.626731,1.347074 0.296873,0.638088 0.03299,0.921683 -0.362845,0.425393 c 0,0 -0.626731,0.248144 -0.758674,0.248144 -0.131944,0 -1.35242,-0.141798 -1.35242,-0.141798 l -0.428816,-0.07089 0.197915,0.638087 -0.06597,0.248147 0.659717,1.347073 0.197915,0.638088 v 1.169829 l 0.03299,1.098928 0.461802,0.673538 0.197915,1.06348 0.39583,1.311625 0.230901,1.169829 -0.164929,0.850782 0.362844,0.531741 0.197916,0.638089 -0.06597,1.098928 0.362844,0.744435 0.461802,1.028032 0.329859,0.673536 0.263886,0.60264 0.39583,0.779885 0.03299,0.56719 0.06597,2.233307 -0.39583,2.162409 -0.03299,0.708987 0.197915,0.389943 0.626731,0.638087 0.725689,0.460842 1.781236,1.134378 0.79166,1.240728 1.715265,3.474033 1.088533,2.233308 0.593745,1.524321 0.06597,0.460841 -0.131943,0.815335 -1.451378,2.942295 -2.210052,3.509483 -1.418391,2.623251 -0.329859,0.602639 0.263887,4.289368 0.79166,3.686733 z"
       id="path79" /></g><g
     inkscape:groupmode="layer"
     id="layer10"
     inkscape:label="hair"
     sodipodi:insensitive="true"><g
       id="g35"
       transform="translate(103.65052)"><path
         style="fill:#999999;stroke-width:0.264583"
         d="m -53.624289,25.420673 -1.204383,-0.03508 c 0,0 -1.796832,-0.378076 -2.280145,-0.678197 l -0.783431,-0.514494 -1.134227,-1.3447 -0.514492,-0.04677 -1.461632,-0.23386 -0.03508,-0.619732 -0.280633,-0.128625 -0.53788,-0.09355 -0.935442,-0.748354 -0.09355,-0.818513 0.57296,-1.251156 -0.198781,-1.297927 V 16.74443 l 0.233859,-0.572959 0.865286,-0.760048 0.584653,-0.02339 -10e-7,-3.203893 c 0,0 0.173934,-1.354143 0.327406,-1.590254 0.152009,-0.23386 0.656318,-0.8334077 0.736661,-0.900364 0.07015,-0.058465 3.274051,-2.4672318 3.274051,-2.4672318 l 1.3447,-0.8185128 1.41486,-0.7015827 1.531787,-0.6665034 1.613639,-0.3157121 0.958831,0.6548105 0.09354,0.4209494 0.09354,0.1870887 0.26894,-0.2338608 1.087454,-0.2806331 1.192689,0.3040192 2.712786,2.3269153 0.339098,0.6197311 1.485016,2.1281335 0.888672,1.777343 0.631424,1.543481 0.970524,-0.11693 0.876977,0.26894 0.596345,1.19269 -0.01169,0.549573 -0.678196,0.912057 -0.257246,0.163703 -0.11693,0.584652 0.11693,0.467721 -0.140316,0.397564 0.608037,0.666503 0.397564,1.040681 -0.397563,0.958829 -0.327406,0.374177 -0.280632,0.116931 -0.11693,0.163703 -0.233863,0.11693 -0.374176,0.210475 -0.491107,0.187088 -0.888672,-0.07016 -0.128625,0.397563 0.05846,0.233861 1.204384,2.923261 -0.619731,-0.818514 0.409256,1.251157 -1.333007,-2.782945 -0.08186,0.292326 -0.280632,0.561266 -0.572961,0.444336 -1.017292,0.07016 -0.491109,-0.11693 -1.099145,-0.95883 -1.028989,0.140317 0.140317,-0.187089 -2.128134,0.257247 c 0,0 2.15152,-0.608038 2.26845,-0.701582 0.11693,-0.09355 0.53788,-0.397564 0.53788,-0.397564 l -1.286235,-0.02339 -0.935442,0.280633 -1.028989,0.701582 0.233863,-0.397563 h -0.935445 l -0.701582,0.257247 -0.233863,0.713275 -0.456034,0.362485 -0.713274,0.467721 -1.286235,0.03508 z"
         id="path28"
         sodipodi:nodetypes="cccccccccccccccccccssccccccccccccccccccccccccccccccccccccccccccccccccccscccccccccccc" /><path
         style="fill:#999999;stroke-width:0.264583"
         d="m -38.820899,21.094247 1.379781,-0.374177 1.660411,-0.210475 c 0,0 -2.198293,0.584652 -2.315223,0.631424 -0.11693,0.04677 -1.052372,0.280633 -1.052372,0.280633 l 0.304016,-0.23386 z"
         id="path29" /><path
         style="fill:#999999;stroke-width:0.264583"
         d="m -39.265235,21.585355 c 0.374179,-0.07016 0.654812,-0.07016 0.654812,-0.07016 l -1.145918,0.420949 z"
         id="path30" /><path
         style="fill:#999999;stroke-width:0.264583"
         d="m -41.533685,22.380482 0.608039,1.19269 -0.280633,-0.912057 0.561266,0.397563 h 0.140316 0.210476 l 0.584653,-0.584652 0.09354,-0.397563 -0.561266,0.608038 -0.187089,0.187089 z"
         id="path31" /><path
         style="fill:#999999;stroke-width:0.264583"
         d="m -48.339033,23.269153 2.455537,0.140316 0.491109,-0.818512 z"
         id="path32" /><path
         style="fill:#999999;stroke-width:0.264583"
         d="m -47.403591,22.87159 c 0.04677,0.09354 -0.163703,0.23386 -0.163703,0.23386 h 0.958829 l -0.23386,-0.467721 z"
         id="path33" /><path
         style="fill:#999999;stroke-width:0.264583"
         d="m -59.260334,22.824817 c 0,0.116931 -0.07016,1.099146 0.02339,1.333007 0.09354,0.233861 0.491106,1.73057 0.491106,1.73057 l 0.374176,0.467722 -0.327403,-0.818513 c 0,0 0.701583,0.491108 0.584653,0.444336 -0.116933,-0.04677 -0.818515,-1.239463 -0.818515,-1.239463 l 0.04677,-1.683798 0.374176,1.683798 0.537882,0.514494 -0.818515,-2.38538 -0.491106,-0.374178 z"
         id="path34" /></g><path
       style="fill:#999999;stroke-width:0.264583"
       d="m 42.352198,15.434815 0.210473,-0.140317 0.210476,-0.07016 -0.04677,-1.742263 -0.0117,-0.397563 0.280633,-0.444336 0.02339,3.063577 z"
       id="path72" /><path
       style="fill:#999999;stroke-width:0.264583"
       d="m 64.756064,19.270133 0.210476,0.163702 0.04677,0.502801 0.140316,0.327405 -0.128624,0.362484 v 0.163703 l -0.175395,0.233861 c 0,0 -0.05846,-1.777342 -0.09355,-1.753956 z"
       id="path73" /><path
       style="fill:#999999;stroke-width:0.264583"
       d="m 64.206492,17.738344 0.08185,0.07016 -0.02339,0.23386 0.02339,0.233861 0.105235,0.304019 -0.105235,0.245554 -0.374179,-0.198782 z"
       id="path74" /></g><text
     xml:space="preserve"
     style="font-size:9.07499px;font-family:robot;-inkscape-font-specification:robot;text-align:center;text-anchor:middle;fill:#b3b3b3;stroke-width:0.170156"
     x="65.609612"
     y="55.666843"
     id="text19"
     inkscape:label="folklore"
     transform="matrix(1.134567,-3.6719334e-4,2.8524813e-4,0.88139343,0,0)"
     sodipodi:insensitive="true"><tspan
       sodipodi:role="line"
       id="tspan19"
       style="font-style:normal;font-variant:normal;font-weight:normal;font-stretch:normal;font-family:'IM FELL DW Pica';-inkscape-font-specification:'IM FELL DW Pica';fill:#b3b3b3;stroke-width:0.170156"
       x="65.609612"
       y="55.666843">folklore</tspan></text><text
     xml:space="preserve"
     style="font-size:3.45199px;font-family:robot;-inkscape-font-specification:robot;text-align:center;text-anchor:middle;fill:#b3b3b3;stroke-width:0.0647248"
     x="10.135146"
     y="4.1804681"
     id="text19-0"
     inkscape:label="taylor swift"
     transform="matrix(1.115284,-3.7354203e-4,2.8040007e-4,0.89663253,0,0)"
     sodipodi:insensitive="true"><tspan
       sodipodi:role="line"
       id="tspan19-3"
       style="font-style:normal;font-variant:normal;font-weight:normal;font-stretch:normal;font-family:'IM FELL DW Pica';-inkscape-font-specification:'IM FELL DW Pica';fill:#b3b3b3;stroke-width:0.0647248"
       x="10.135146"
       y="4.1804681">taylor swift</tspan></text><g
     id="g43"
     inkscape:label="republic records"><rect
       style="display:inline;fill:#999999;stroke-width:0.264583"
       id="rect41"
       width="35.546844"
       height="15.154181"
       x="2.4321525"
       y="79.699768"
       inkscape:label="label" /><rect
       style="fill:#ffffff;stroke-width:0.264583"
       id="rect42"
       width="26.940767"
       height="1.4967093"
       x="6.3610144"
       y="87.557495"
       inkscape:label="line" /><rect
       style="fill:#ffffff;stroke-width:0.264583"
       id="rect43"
       width="25.818235"
       height="1.683798"
       x="7.2964578"
       y="91.112175"
       inkscape:label="line" /><text
       xml:space="preserve"
       style="font-style:normal;font-variant:normal;font-weight:normal;font-stretch:normal;font-size:3.2776px;font-family:'IM FELL DW Pica';-inkscape-font-specification:'IM FELL DW Pica';text-align:center;text-anchor:middle;fill:#ffffff;stroke-width:0.061455"
       x="17.99547"
       y="87.409569"
       id="text41"
       transform="scale(1.0344446,0.96670233)"
       inkscape:label="republic records"><tspan
         sodipodi:role="line"
         id="tspan41"
         style="fill:#ffffff;stroke-width:0.061455"
         x="17.99547"
         y="87.409569">republic records</tspan></text></g></svg>
